<svg width="16" height="16" viewBox="0 0 16 16" fill="none" xmlns="http://www.w3.org/2000/svg">
<g clip-path="url(#clip0_70_235)">
<path d="M13.7321 16H2.99121C2.31155 16 1.76062 15.449 1.76062 14.7694V1.23059C1.76062 0.550965 2.31155 0 2.99121 0H13.7321C14.0123 0 14.2394 0.227106 14.2394 0.507231V15.4928C14.2394 15.7729 14.0123 16 13.7321 16Z" fill="url(#paint0_linear_70_235)"/>
<path d="M14.2394 15.4927V12.6849C14.2394 13.1565 13.8571 13.5388 13.3855 13.5388H2.99121C2.31155 13.5388 1.76062 14.0897 1.76062 14.7694C1.76062 15.449 2.31155 16 2.99121 16H13.7321C14.0123 16 14.2394 15.7729 14.2394 15.4927Z" fill="url(#paint1_linear_70_235)"/>
<path d="M2.99121 0C2.31155 0 1.76062 0.550965 1.76062 1.23059V14.7694C1.76062 14.0897 2.31158 13.5388 2.99121 13.5388H13.7321C14.0123 13.5388 14.2394 13.3117 14.2394 13.0316V0.507231C14.2394 0.227106 14.0123 0 13.7321 0H2.99121Z" fill="url(#paint2_linear_70_235)"/>
<path d="M13.9563 0.0527344C13.9876 0.119569 14.0039 0.192457 14.0039 0.266256V12.7906C14.0039 13.0707 13.7768 13.2978 13.4967 13.2978H2.75576C2.34663 13.2978 1.98437 13.4977 1.76062 13.8049V14.7694C1.76062 14.0898 2.31158 13.5388 2.99121 13.5388H13.7322C14.0123 13.5388 14.2394 13.3117 14.2394 13.0316V0.507228C14.2394 0.307668 14.1239 0.135558 13.9563 0.0527344Z" fill="url(#paint3_linear_70_235)"/>
<path d="M13.3538 15.7018H3.0739C2.55895 15.7018 2.14148 15.2843 2.14148 14.7693C2.14148 14.2544 2.55892 13.8369 3.0739 13.8369H13.7686V15.287C13.7686 15.5161 13.5829 15.7018 13.3538 15.7018Z" fill="url(#paint4_linear_70_235)"/>
<path d="M2.24951 15.2052C2.406 15.5005 2.71634 15.7018 3.07379 15.7018H13.3537C13.5828 15.7018 13.7685 15.5161 13.7685 15.2871V15.2052H2.24951V15.2052Z" fill="url(#paint5_linear_70_235)"/>
<path d="M3.0739 15.7018H13.3538C13.5829 15.7018 13.7686 15.5161 13.7686 15.2871V14.7694H2.14148C2.14148 15.2844 2.55892 15.7018 3.0739 15.7018Z" fill="url(#paint6_linear_70_235)"/>
<path d="M2.24504 14.3425C2.17685 14.4745 2.14133 14.6209 2.14148 14.7694C2.14148 15.2844 2.55892 15.7019 3.0739 15.7019H13.3538C13.5829 15.7019 13.7686 15.5162 13.7686 15.2871V14.3426H2.24504V14.3425Z" fill="url(#paint7_linear_70_235)"/>
<path d="M3.43823 0H3.8531V13.5388H3.43823V0Z" fill="url(#paint8_linear_70_235)"/>
<path d="M5.75141 14.3425L7.38671 15.9778H3.5293V14.3425H5.75141Z" fill="url(#paint9_linear_70_235)"/>
<path d="M3.43823 14.3425V15.942C3.43823 15.9888 3.49094 16.0163 3.52937 15.9896L4.4852 15.3236C4.51736 15.3012 4.55563 15.2891 4.59484 15.2891C4.63406 15.2891 4.67233 15.3012 4.70449 15.3236L5.66032 15.9896C5.69878 16.0163 5.75146 15.9888 5.75146 15.942V14.3425H3.43823Z" fill="url(#paint10_linear_70_235)"/>
<path d="M3.85303 0.391235H13.85V13.2081H3.85303V0.391235Z" fill="url(#paint11_linear_70_235)"/>
<path d="M11.7861 6.06308H5.9171C5.60564 6.06308 5.35315 5.81059 5.35315 5.49909V3.89025C5.35315 3.57878 5.60564 3.32629 5.9171 3.32629H11.7861C12.0976 3.32629 12.3501 3.57878 12.3501 3.89025V5.49909C12.3501 5.81056 12.0976 6.06308 11.7861 6.06308Z" fill="url(#paint12_linear_70_235)"/>
<path d="M11.6558 5.82555H6.04739C5.77231 5.82555 5.54932 5.60255 5.54932 5.32745V4.06207C5.54932 3.78699 5.77231 3.56396 6.04739 3.56396H11.6558C11.9308 3.56396 12.1538 3.78696 12.1538 4.06207V5.32745C12.1538 5.60255 11.9308 5.82555 11.6558 5.82555Z" fill="url(#paint13_linear_70_235)"/>
</g>
<defs>
<linearGradient id="paint0_linear_70_235" x1="3.67927" y1="3.34535" x2="17.0586" y2="17.0938" gradientUnits="userSpaceOnUse">
<stop stop-color="#18CFFC"/>
<stop offset="1" stop-color="#4A98F7"/>
</linearGradient>
<linearGradient id="paint1_linear_70_235" x1="9.43447" y1="18.2187" x2="7.42663" y2="12.0697" gradientUnits="userSpaceOnUse">
<stop stop-color="#0469BC" stop-opacity="0"/>
<stop offset="1" stop-color="#0469BC"/>
</linearGradient>
<linearGradient id="paint2_linear_70_235" x1="3.60018" y1="3.01409" x2="15.7662" y2="15.5157" gradientUnits="userSpaceOnUse">
<stop stop-color="#18CFFC"/>
<stop offset="1" stop-color="#4A98F7"/>
</linearGradient>
<linearGradient id="paint3_linear_70_235" x1="8.96037" y1="11.7404" x2="15.8306" y2="-0.729572" gradientUnits="userSpaceOnUse">
<stop stop-color="#18CFFC" stop-opacity="0"/>
<stop offset="1" stop-color="#65E1DC"/>
</linearGradient>
<linearGradient id="paint4_linear_70_235" x1="7.955" y1="14.1176" x2="7.955" y2="15.6722" gradientUnits="userSpaceOnUse">
<stop stop-color="#F9F7FC"/>
<stop offset="1" stop-color="#F0DDFC"/>
</linearGradient>
<linearGradient id="paint5_linear_70_235" x1="7.99075" y1="15.7202" x2="8.07442" y2="13.5659" gradientUnits="userSpaceOnUse">
<stop stop-color="#F0DDFC" stop-opacity="0"/>
<stop offset="0.289" stop-color="#C8B7E0" stop-opacity="0.289"/>
<stop offset="0.592" stop-color="#A595C8" stop-opacity="0.592"/>
<stop offset="0.84" stop-color="#8F81B8" stop-opacity="0.84"/>
<stop offset="1" stop-color="#8779B3"/>
</linearGradient>
<linearGradient id="paint6_linear_70_235" x1="7.955" y1="15.2261" x2="7.955" y2="14.1386" gradientUnits="userSpaceOnUse">
<stop stop-color="#F0DDFC" stop-opacity="0"/>
<stop offset="0.289" stop-color="#C8B7E0" stop-opacity="0.289"/>
<stop offset="0.592" stop-color="#A595C8" stop-opacity="0.592"/>
<stop offset="0.84" stop-color="#8F81B8" stop-opacity="0.84"/>
<stop offset="1" stop-color="#8779B3"/>
</linearGradient>
<linearGradient id="paint7_linear_70_235" x1="7.96513" y1="14.6806" x2="7.98603" y2="13.9695" gradientUnits="userSpaceOnUse">
<stop stop-color="#F0DDFC" stop-opacity="0"/>
<stop offset="0.289" stop-color="#C8B7E0" stop-opacity="0.289"/>
<stop offset="0.592" stop-color="#A595C8" stop-opacity="0.592"/>
<stop offset="0.84" stop-color="#8F81B8" stop-opacity="0.84"/>
<stop offset="1" stop-color="#8779B3"/>
</linearGradient>
<linearGradient id="paint8_linear_70_235" x1="3.93712" y1="6.76941" x2="3.2441" y2="6.76941" gradientUnits="userSpaceOnUse">
<stop stop-color="#18CFFC"/>
<stop offset="1" stop-color="#4A98F7"/>
</linearGradient>
<linearGradient id="paint9_linear_70_235" x1="5.47173" y1="16.0319" x2="5.08741" y2="14.5182" gradientUnits="userSpaceOnUse">
<stop stop-color="#F0DDFC" stop-opacity="0"/>
<stop offset="0.289" stop-color="#C8B7E0" stop-opacity="0.289"/>
<stop offset="0.592" stop-color="#A595C8" stop-opacity="0.592"/>
<stop offset="0.84" stop-color="#8F81B8" stop-opacity="0.84"/>
<stop offset="1" stop-color="#8779B3"/>
</linearGradient>
<linearGradient id="paint10_linear_70_235" x1="4.06935" y1="14.4686" x2="5.63475" y2="16.5049" gradientUnits="userSpaceOnUse">
<stop stop-color="#FF7044"/>
<stop offset="1" stop-color="#F92814"/>
</linearGradient>
<linearGradient id="paint11_linear_70_235" x1="9.59985" y1="7.79293" x2="2.41284" y2="-1.74618" gradientUnits="userSpaceOnUse">
<stop stop-color="#18CFFC" stop-opacity="0"/>
<stop offset="1" stop-color="#65E1DC"/>
</linearGradient>
<linearGradient id="paint12_linear_70_235" x1="9.41568" y1="6.17765" x2="7.09131" y2="0.0667486" gradientUnits="userSpaceOnUse">
<stop stop-color="#18CFFC"/>
<stop offset="1" stop-color="#4A98F7"/>
</linearGradient>
<linearGradient id="paint13_linear_70_235" x1="8.79214" y1="3.95195" x2="8.9421" y2="5.82646" gradientUnits="userSpaceOnUse">
<stop stop-color="#F9F7FC"/>
<stop offset="1" stop-color="#F0DDFC"/>
</linearGradient>
<clipPath id="clip0_70_235">
<rect width="16" height="16" fill="white"/>
</clipPath>
</defs>
</svg>
